<?xml version="1.0" encoding="utf-8"?>
<!-- Generator: Adobe Illustrator 19.0.0, SVG Export Plug-In . SVG Version: 6.00 Build 0)  -->
<svg version="1.1" id="Layer_1" xmlns="http://www.w3.org/2000/svg" xmlns:xlink="http://www.w3.org/1999/xlink" x="0px" y="0px"
	 viewBox="0 0 102 87" enable-background="new 0 0 102 87" xml:space="preserve">
<g id="XMLID_24_">
	<g id="XMLID_28_">
		<path id="XMLID_2_" fill="#FFFFFF" d="M87,62.4c0,0.7-0.5,1.5-1.1,1.8l-33,22.6c-0.6,0.3-1.5,0.3-2.1,0L13.7,65.8
			c-0.6-0.3-1.1-1.2-1.1-1.8l3.9-40.4c0-0.7,0.5-1.5,1.1-1.8L51,2.7c0.6-0.3,1.5-0.3,2.1,0l32.7,19.1c0.6,0.3,1.1,1.2,1.1,1.8V62.4z
			"/>
		<path id="XMLID_22_" fill="#F7F7F7" d="M18.3,21.9L51.2,3c0.6-0.3,1.5-0.3,2.1,0l32.4,18.9c0.6,0.3,1.1,1.2,1.1,1.8l-0.2,38.1
			c0,0.7-0.5,1.5-1.1,1.8c0,0-32.5,22.1-32.5,22.1c-0.6,0.3-1.5,0.3-2.1,0L14.4,65.1c-0.6-0.3-1-1.1-1-1.8c0-0.2,3.7-38.7,3.7-38.7
			c0,0,0.1-0.8,0.1-0.8C17.3,23.1,17.7,22.2,18.3,21.9z"/>
		<path id="XMLID_21_" fill="#EFEFEF" d="M19,22L51.4,3.2c0.6-0.3,1.5-0.3,2.1,0l32.1,18.7c0.6,0.3,1,1.1,1,1.8l-0.4,37.6
			c0,0.7-0.5,1.5-1,1.8c0,0-32,21.7-32,21.6c-0.5,0.3-1.5,0.2-2-0.1l-36-20.3c-0.5-0.3-1-1.1-1-1.8c0-0.5,3.7-38,3.7-38
			c0,0,0.1-0.8,0.1-0.8C18.1,23.2,18.4,22.4,19,22z"/>
		<path id="XMLID_20_" fill="#E6E6E7" d="M19.7,22.2L51.5,3.4c0.6-0.3,1.5-0.3,2.1,0l31.8,18.5c0.6,0.3,1,1.1,1,1.8l-0.6,37
			c0,0.7-0.5,1.5-1,1.8c0,0-31.5,21.2-31.5,21.2c-0.5,0.3-1.5,0.2-2-0.1l-35.4-20c-0.5-0.3-0.9-1.1-0.9-1.8c0-0.7,3.7-37.2,3.7-37.2
			c0,0,0.1-0.8,0.1-0.8C18.8,23.3,19.2,22.5,19.7,22.2z"/>
		<path id="XMLID_19_" fill="#DEDEDE" d="M20.5,22.3L51.7,3.6c0.6-0.3,1.5-0.3,2.1,0L85.2,22c0.6,0.3,1,1.1,1,1.8l-0.7,36.4
			c0,0.7-0.5,1.5-1,1.8c0,0-30.9,20.8-31,20.7c-0.5,0.3-1.5,0.1-2-0.1L16.6,62.9c-0.5-0.3-0.9-1-0.9-1.7c0-0.9,3.6-36.4,3.6-36.4
			c0,0,0.1-0.8,0.1-0.8C19.6,23.4,19.9,22.6,20.5,22.3z"/>
		<path id="XMLID_18_" fill="#D6D6D6" d="M21.2,22.4L51.9,3.9c0.6-0.3,1.5-0.3,2,0L85.1,22c0.6,0.3,1,1.1,1,1.8l-0.9,35.8
			c0,0.6-0.5,1.4-1,1.8c0,0-30.4,20.4-30.5,20.3c-0.4,0.3-1.5,0.1-1.9-0.2L17.4,62.1c-0.5-0.3-0.8-1-0.8-1.7
			c0.1-1.2,3.6-35.6,3.6-35.6c0,0,0.1-0.7,0.1-0.8C20.3,23.5,20.7,22.7,21.2,22.4z"/>
		<path id="XMLID_17_" fill="#CECECE" d="M21.9,22.6L52,4.1c0.6-0.3,1.5-0.3,2,0l30.9,18c0.6,0.3,1,1.1,1,1.8l-1.1,35.3
			c0,0.6-0.5,1.4-1,1.7c0,0-29.9,19.9-30,19.8c-0.4,0.2-1.5,0-1.9-0.2L18.1,61.4c-0.4-0.2-0.8-1-0.8-1.7c0.1-1.4,3.5-34.8,3.5-34.8
			c0,0,0.1-0.7,0.1-0.8C21.1,23.6,21.4,22.9,21.9,22.6z"/>
		<path id="XMLID_16_" fill="#C6C6C6" d="M22.7,22.7L52.2,4.3c0.5-0.3,1.5-0.3,2,0l30.5,17.8c0.5,0.3,1,1.1,1,1.7l-1.3,34.7
			c0,0.6-0.5,1.4-1,1.7c0,0-29.4,19.5-29.6,19.4c-0.4,0.2-1.5,0-1.9-0.2L18.8,60.7c-0.4-0.2-0.7-0.9-0.7-1.6c0.1-1.7,3.5-34,3.5-34
			c0-0.1,0.1-0.7,0.1-0.7C21.8,23.7,22.2,23,22.7,22.7z"/>
		<path id="XMLID_15_" fill="#BDBDBE" d="M23.4,22.8l29-18.3c0.5-0.3,1.4-0.3,2,0l30.2,17.6c0.5,0.3,1,1.1,1,1.7L84.1,58
			c0,0.6-0.4,1.4-1,1.7c0,0-28.9,19-29.1,18.9c-0.4,0.2-1.5-0.1-1.8-0.3L19.6,59.9c-0.4-0.2-0.7-0.9-0.7-1.6
			c0.1-1.9,3.5-33.2,3.5-33.2c0-0.1,0.1-0.7,0.1-0.7C22.6,23.8,22.9,23.1,23.4,22.8z"/>
		<path id="XMLID_14_" fill="#B5B5B6" d="M24.2,23L52.5,4.8c0.5-0.3,1.4-0.3,2,0l29.9,17.4c0.5,0.3,1,1.1,1,1.7l-1.7,33.5
			c0,0.6-0.4,1.4-1,1.7c0,0-28.4,18.6-28.6,18.5c-0.3,0.2-1.4-0.1-1.8-0.3L20.3,59.2c-0.4-0.2-0.6-0.9-0.6-1.6
			c0.1-2.1,3.4-32.5,3.4-32.5c0-0.1,0.1-0.6,0.1-0.7C23.3,23.9,23.7,23.2,24.2,23z"/>
		<path id="XMLID_13_" fill="#ADADAE" d="M24.9,23.1L52.7,5c0.5-0.3,1.4-0.3,1.9,0l29.6,17.2c0.5,0.3,1,1.1,1,1.7l-1.9,33
			c0,0.6-0.4,1.4-1,1.7c0,0-27.8,18.2-28.1,18c-0.3,0.2-1.4-0.2-1.7-0.4L21.1,58.5c-0.3-0.2-0.6-0.8-0.6-1.6
			c0.1-2.4,3.4-31.7,3.4-31.7c0-0.1,0.1-0.6,0.1-0.7C24.1,24,24.4,23.4,24.9,23.1z"/>
		<path id="XMLID_12_" fill="#A5A5A5" d="M25.6,23.2l27.3-18c0.5-0.3,1.4-0.3,1.9,0l29.3,17c0.5,0.3,1,1.1,1,1.7l-2,32.4
			c0,0.6-0.4,1.4-1,1.7c0,0-27.3,17.7-27.6,17.6c-0.3,0.2-1.4-0.2-1.7-0.4l-31-17.5c-0.3-0.2-0.5-0.8-0.5-1.5
			c0.1-2.6,3.3-30.9,3.3-30.9c0-0.1,0.1-0.6,0.1-0.7C24.8,24.1,25.2,23.5,25.6,23.2z"/>
		<path id="XMLID_11_" fill="#9D9D9D" d="M26.4,23.4L53,5.5c0.5-0.3,1.4-0.3,1.9,0l29,16.9c0.5,0.3,1,1,1,1.7l-2.2,31.8
			c0,0.6-0.4,1.4-1,1.7c0,0-26.8,17.3-27.1,17.1c-0.2,0.1-1.4-0.3-1.7-0.4L22.5,57c-0.3-0.2-0.5-0.8-0.5-1.5
			c0.2-2.8,3.3-30.1,3.3-30.1c0-0.1,0.1-0.5,0.1-0.6C25.6,24.2,25.9,23.6,26.4,23.4z"/>
		<path id="XMLID_10_" fill="#959595" d="M27.1,23.5L53.2,5.7c0.5-0.3,1.4-0.3,1.9,0l28.7,16.7c0.5,0.3,0.9,1,0.9,1.6l-2.4,31.3
			c0,0.6-0.4,1.3-0.9,1.6c0,0-26.3,16.8-26.6,16.7c-0.2,0.1-1.4-0.3-1.6-0.5L23.3,56.2c-0.3-0.2-0.5-0.7-0.4-1.5
			c0.2-3.1,3.3-29.3,3.3-29.3c0-0.1,0.1-0.5,0.1-0.6C26.3,24.3,26.7,23.7,27.1,23.5z"/>
		<path id="XMLID_9_" fill="#8C8C8D" d="M27.8,23.6L53.4,6c0.5-0.3,1.4-0.3,1.9,0l28.4,16.5c0.5,0.3,0.9,1,0.9,1.6L82,54.8
			c0,0.6-0.4,1.3-0.9,1.6c0,0-25.8,16.4-26.1,16.2c-0.2,0.1-1.4-0.4-1.6-0.5L24,55.5c-0.2-0.1-0.4-0.7-0.4-1.4
			c0.2-3.3,3.2-28.5,3.2-28.5c0-0.1,0.1-0.5,0.1-0.6C27.1,24.4,27.4,23.9,27.8,23.6z"/>
		<path id="XMLID_8_" fill="#848485" d="M28.6,23.8l25-17.6c0.5-0.3,1.3-0.3,1.9,0l28,16.3c0.5,0.3,0.9,1,0.9,1.6l-2.8,30.1
			c0,0.6-0.4,1.3-0.9,1.6c0,0-25.2,16-25.6,15.8c-0.2,0.1-1.4-0.4-1.5-0.5L24.7,54.8c-0.2-0.1-0.4-0.7-0.3-1.4
			c0.2-3.5,3.2-27.7,3.2-27.7c0-0.1,0.1-0.5,0.1-0.6C27.8,24.5,28.2,24,28.6,23.8z"/>
		<path id="XMLID_7_" fill="#7C7C7D" d="M29.3,23.9L53.7,6.4c0.5-0.3,1.3-0.3,1.8,0l27.7,16.1c0.5,0.3,0.9,1,0.9,1.6l-3,29.5
			c0,0.6-0.4,1.3-0.9,1.6c0,0-24.7,15.5-25.1,15.3c-0.1,0.1-1.4-0.5-1.5-0.6L25.5,54c-0.2-0.1-0.3-0.6-0.3-1.4
			c0.2-3.8,3.1-27,3.1-27c0-0.1,0-0.4,0.1-0.6C28.6,24.6,28.9,24.1,29.3,23.9z"/>
		<path id="XMLID_6_" fill="#747475" d="M30,24L53.9,6.6c0.5-0.3,1.3-0.3,1.8,0l27.4,15.9c0.5,0.3,0.9,1,0.9,1.6l-3.2,29
			c0,0.6-0.4,1.3-0.9,1.6c0,0-24.2,15.1-24.6,14.9C55.3,69.6,54,69,53.9,69L26.2,53.3c-0.2-0.1-0.3-0.6-0.2-1.4
			c0.3-4,3.1-26.2,3.1-26.2c0-0.1,0-0.4,0.1-0.6C29.3,24.7,29.6,24.2,30,24z"/>
		<path id="XMLID_5_" fill="#6C6C6C" d="M30.8,24.1L54.1,6.9c0.5-0.3,1.3-0.3,1.8,0L83,22.6c0.5,0.3,0.9,1,0.9,1.6l-3.3,28.4
			c0,0.6-0.4,1.3-0.9,1.6c0,0-23.7,14.7-24.1,14.4c-0.1,0-1.3-0.6-1.4-0.6L27,52.5c-0.1-0.1-0.2-0.6-0.2-1.3
			c0.3-4.2,3.1-25.4,3.1-25.4c0-0.1,0-0.4,0.1-0.5C30.1,24.8,30.4,24.4,30.8,24.1z"/>
		<path id="XMLID_4_" fill="#636364" d="M31.5,24.3L54.2,7.1c0.5-0.3,1.3-0.3,1.8,0l26.8,15.6c0.5,0.3,0.9,1,0.9,1.5L80.2,52
			c0,0.6-0.4,1.3-0.9,1.5c0,0-23.2,14.2-23.6,14c-0.1,0-1.3-0.6-1.4-0.7L27.7,51.8c-0.1-0.1-0.2-0.5-0.1-1.3c0.3-4.5,3-24.6,3-24.6
			c0-0.1,0-0.4,0.1-0.5C30.8,24.9,31.1,24.5,31.5,24.3z"/>
		<path id="XMLID_3_" fill="#5B5B5C" d="M32.2,24.4L54.4,7.3c0.5-0.3,1.3-0.3,1.8,0l26.5,15.4c0.5,0.3,0.9,1,0.9,1.5l-3.7,27.2
			c0,0.6-0.4,1.2-0.9,1.5c0,0-22.7,13.8-23.1,13.5c0,0-1.3-0.7-1.3-0.7l-26-14.8c-0.1-0.1-0.1-0.5-0.1-1.3c0.3-4.7,3-23.8,3-23.8
			c0-0.1,0-0.3,0.1-0.5C31.6,25,31.9,24.6,32.2,24.4z"/>
		<path id="XMLID_1_" fill="#535354" d="M79.5,51c0,0.6-0.4,1.2-0.9,1.5c0,0-22.1,13.3-22.6,13.1L29.2,50.3
			c-0.5-0.3,2.9-24.3,2.9-24.3c0-0.6,0.4-1.2,0.9-1.5l21.6-17c0.5-0.3,1.3-0.3,1.7,0l26.2,15.2c0.5,0.3,0.9,1,0.9,1.5L79.5,51z"/>
	</g>
	<g id="XMLID_25_">
		
			<linearGradient id="XMLID_36_" gradientUnits="userSpaceOnUse" x1="34.5379" y1="8.9609" x2="56.8743" y2="57.1701" gradientTransform="matrix(-1 0 0 1 102 0)">
			<stop  offset="0" style="stop-color:#FFFFFF"/>
			<stop  offset="0.3389" style="stop-color:#F9F9F9"/>
			<stop  offset="0.785" style="stop-color:#E9E9E9"/>
			<stop  offset="1" style="stop-color:#DEDEDE"/>
		</linearGradient>
		<path id="XMLID_27_" fill="url(#XMLID_36_)" d="M86.1,56.2c0,0.6-0.4,1.4-1,1.7L54.7,75.4c-0.5,0.3-1.4,0.3-1.9,0L22.3,57.9
			c-0.5-0.3-1-1.1-1-1.7V21c0-0.6,0.4-1.4,1-1.7L52.8,1.7c0.5-0.3,1.4-0.3,1.9,0l30.5,17.6c0.5,0.3,1,1.1,1,1.7V56.2z"/>
		
			<linearGradient id="XMLID_37_" gradientUnits="userSpaceOnUse" x1="98.0643" y1="111.2478" x2="39.9963" y2="25.7891" gradientTransform="matrix(-1 0 0 1 102 0)">
			<stop  offset="0" style="stop-color:#FFFFFF"/>
			<stop  offset="0.3389" style="stop-color:#F9F9F9"/>
			<stop  offset="0.785" style="stop-color:#E9E9E9"/>
			<stop  offset="1" style="stop-color:#DEDEDE"/>
		</linearGradient>
		<path id="XMLID_26_" fill="url(#XMLID_37_)" d="M84.9,56.1c0,0.6-0.4,1.3-0.9,1.6L54.1,75c-0.5,0.3-1.4,0.3-1.9,0L22.3,57.7
			c-0.5-0.3-0.9-1-0.9-1.6V21.6c0-0.6,0.4-1.3,0.9-1.6L52.2,2.7c0.5-0.3,1.4-0.3,1.9,0L84,19.9c0.5,0.3,0.9,1,0.9,1.6V56.1z"/>
	</g>
</g>
<g id="XMLID_62_">
	<path id="XMLID_64_" fill="none" stroke="#B3B3B3" stroke-width="0.4" stroke-miterlimit="10" d="M69.8,57.5c1-1,2-2,3-2.9"/>
	<path id="XMLID_65_" fill="none" stroke="#B3B3B3" stroke-width="0.4" stroke-miterlimit="10" d="M69.6,55c0.9,0.3,1.7,0.7,2.4,1.2
		c0.4,0.3,0.9,0.6,1.3,1"/>
</g>
<circle id="XMLID_63_" fill="none" stroke="#B3B3B3" stroke-width="0.4" stroke-miterlimit="10" cx="53.6" cy="10.7" r="1.4"/>
<path id="XMLID_67_" fill="none" stroke="#B3B3B3" stroke-width="0.4" stroke-miterlimit="10" d="M29.2,26.6c-0.1-0.1-0.1-0.3,0-0.5
	s0.3-0.2,0.4-0.3c0.1,0,0.3-0.1,0.4,0c0.1,0,0.2,0.1,0.3,0.2c0.3,0.4,0.2,0.9-0.1,1.3c-0.3,0.3-0.8,0.5-1.2,0.5
	c-0.2,0-0.3-0.1-0.4-0.1c-0.2-0.1-0.3-0.2-0.4-0.4c-0.3-0.3-0.5-0.7-0.5-1.1c0-0.2,0.1-0.5,0.2-0.7c0.1-0.2,0.1-0.3,0.3-0.5
	c0.1-0.1,0.3-0.2,0.5-0.3c0.3-0.1,0.5-0.2,0.8-0.3c0.4-0.1,0.9-0.1,1.3,0.1c0.3,0.1,0.5,0.4,0.6,0.6c0.1,0.2,0.2,0.4,0.3,0.6
	c0.1,0.3,0.2,0.7,0.2,1c0,0.3,0,0.5-0.1,0.8c-0.2,0.5-0.6,1-1.1,1.2C30.2,29,29.7,29,29.1,29c-0.2,0-0.4,0-0.6-0.1
	c-0.2-0.1-0.3-0.2-0.5-0.3c-0.9-0.7-1.5-1.8-1.4-2.9"/>
<path id="XMLID_2963_" fill="none" stroke="#23154F" stroke-width="1.5" stroke-miterlimit="10" d="M68.3,36.9
	c0.9,0.8,2.2,0.7,3-0.1c0.8-0.9,0.7-2.2-0.1-3l0,0L56.8,20.6c-0.8-0.7-2.1-0.7-2.9,0L39.4,33.8c-0.9,0.8-0.9,2.1-0.1,3l0,0
	c0.4,0.5,1,0.7,1.6,0.7c0.5,0,1-0.2,1.4-0.6 M43.9,39.5v11.4c0,0.5,0.3,0.8,0.6,1c0.3,0.2,0.6,0.2,0.9,0.2c7.3,0,12.5,0,19.8,0
	c0.3,0,0.6-0.1,0.9-0.2c0.3-0.2,0.6-0.5,0.6-1V39.5"/>
<path id="XMLID_9370_" fill="#FF7746" d="M47.2,52.8l-1.7-0.7c0.1-0.6,0.1-1.2,0-1.8c-0.1-0.7-0.3-1.4-0.5-2l1.5-1.1
	c0.2-0.1,0.2-0.4,0.1-0.5l-0.6-1.1c-0.1-0.2-0.3-0.2-0.5-0.2l-1.7,0.8c-0.7-0.9-1.7-1.5-2.7-2l0.4-2c0-0.2-0.1-0.4-0.3-0.5l-1.2-0.4
	c-0.2-0.1-0.4,0-0.5,0.2l-0.9,1.9c0,0,0,0,0,0c-0.6-0.1-1.2,0-1.8,0c-0.5,0.1-1.1,0.2-1.6,0.4c0,0,0,0,0,0l-1.3-1.6
	c-0.1-0.2-0.4-0.2-0.5-0.1l-1.1,0.7c-0.2,0.1-0.2,0.3-0.1,0.5l0.8,1.8c-0.9,0.7-1.7,1.7-2.2,2.7l-2-0.3c-0.2,0-0.4,0.1-0.4,0.3
	l-0.3,1.2c-0.1,0.2,0,0.4,0.2,0.5l1.8,0.8c-0.1,0.6-0.1,1.3,0,2c0.1,0.6,0.2,1.1,0.4,1.6l-1.6,1.2c-0.2,0.1-0.2,0.4-0.1,0.5l0.6,1.1
	c0.1,0.2,0.3,0.2,0.5,0.2l1.8-0.8c0.8,1,1.8,1.7,2.9,2.3l-0.3,1.8c0,0.2,0.1,0.4,0.3,0.4l1.2,0.3c0.2,0.1,0.4,0,0.5-0.2l0.7-1.7
	c0.6,0.1,1.2,0.1,1.8,0c0.6-0.1,1.1-0.2,1.7-0.4l1.1,1.4c0.1,0.2,0.4,0.2,0.5,0.1l1.1-0.6c0.2-0.1,0.2-0.3,0.2-0.5l-0.7-1.6
	c1-0.8,1.8-1.8,2.3-3l1.8,0.3c0.2,0,0.4-0.1,0.4-0.3l0.3-1.2C47.5,53.1,47.4,52.9,47.2,52.8z M38.4,56.8c-3,0.4-5.8-1.7-6.2-4.8
	c-0.4-3,1.7-5.8,4.8-6.2c3-0.4,5.8,1.7,6.2,4.8C43.6,53.7,41.5,56.5,38.4,56.8z M37.2,47c-2.4,0.3-4.1,2.5-3.8,4.9
	c0.3,2.4,2.5,4.1,4.9,3.8c2.4-0.3,4.1-2.5,3.8-4.9C41.8,48.4,39.6,46.7,37.2,47z M37.9,53c-0.9,0.1-1.7-0.5-1.8-1.4
	c-0.1-0.9,0.5-1.7,1.4-1.8c0.9-0.1,1.7,0.5,1.8,1.4C39.5,52,38.8,52.9,37.9,53z"/>
<path id="XMLID_35_" fill="#FF7746" d="M56.9,50.2h-3.2c-1.4,0-2.5-1.1-2.5-2.5v-6.2c0-1.4,1.1-2.5,2.5-2.5h3.2
	c1.4,0,2.5,1.1,2.5,2.5v6.2C59.4,49.1,58.3,50.2,56.9,50.2z"/>
</svg>
