<?xml version="1.0" encoding="utf-8"?>
<!-- Generator: Adobe Illustrator 19.0.0, SVG Export Plug-In . SVG Version: 6.00 Build 0)  -->
<svg version="1.1" id="Layer_1" xmlns="http://www.w3.org/2000/svg" xmlns:xlink="http://www.w3.org/1999/xlink" x="0px" y="0px"
	 viewBox="0 0 40 17" style="enable-background:new 0 0 40 17;" xml:space="preserve">
<style type="text/css">
	.st0{fill:url(#XMLID_2_);}
	.st1{fill:url(#XMLID_3_);}
	.st2{fill:url(#XMLID_4_);}
	.st3{fill:url(#XMLID_5_);}
	.st4{fill:url(#XMLID_6_);}
	.st5{fill:url(#XMLID_7_);}
	.st6{fill:url(#XMLID_8_);}
	.st7{fill:#E95A26;}
	.st8{fill:#F37046;}
	.st9{fill:#F9A467;}
</style>
<g id="XMLID_1161_">
	
		<radialGradient id="XMLID_2_" cx="31.297" cy="-16372.8438" r="3.7944" gradientTransform="matrix(1 0 0 -1 0 -16366)" gradientUnits="userSpaceOnUse">
		<stop  offset="5.618000e-003" style="stop-color:#BBBBC1"/>
		<stop  offset="0.2773" style="stop-color:#B7B6B6"/>
		<stop  offset="0.3539" style="stop-color:#B6B5B2"/>
		<stop  offset="0.4916" style="stop-color:#A8AAAA"/>
		<stop  offset="0.6742" style="stop-color:#92979B"/>
		<stop  offset="1" style="stop-color:#727A7F"/>
	</radialGradient>
	<path id="XMLID_1252_" class="st0" d="M29.3,5.9c0,0,7.1,0,7.2,0s0,0,0,0l-1.1,0.9c0,0-0.1,0.1-0.2,0.1c-0.1,0-5.9,0-5.9,0h0
		c-1.8,0.1-2.7,0-3.2,0.9C25.8,8.3,26.4,5.9,29.3,5.9"/>
	
		<radialGradient id="XMLID_3_" cx="8.6403" cy="-16376.5547" r="3.7322" gradientTransform="matrix(1 0 0 -1 0 -16366)" gradientUnits="userSpaceOnUse">
		<stop  offset="5.618000e-003" style="stop-color:#BBBBC1"/>
		<stop  offset="0.2773" style="stop-color:#B7B6B6"/>
		<stop  offset="0.3539" style="stop-color:#B6B5B2"/>
		<stop  offset="0.4916" style="stop-color:#A8AAAA"/>
		<stop  offset="0.6742" style="stop-color:#92979B"/>
		<stop  offset="1" style="stop-color:#727A7F"/>
	</radialGradient>
	<path id="XMLID_1251_" class="st1" d="M10.6,11.5c0,0-7,0-7.1,0s0,0,0,0l1.1-0.9c0,0,0.1-0.1,0.2-0.1c0.1,0,5.8,0,5.8,0h0
		c1.8-0.1,2.7,0,3.2-0.9C14.1,9.1,13.4,11.5,10.6,11.5"/>
	<g id="XMLID_1249_">
		
			<linearGradient id="XMLID_4_" gradientUnits="userSpaceOnUse" x1="22.4483" y1="-16374.6992" x2="40" y2="-16374.6992" gradientTransform="matrix(1 0 0 -1 0 -16366)">
			<stop  offset="0" style="stop-color:#FFFFFF"/>
			<stop  offset="0.3606" style="stop-color:#F6F6F5"/>
			<stop  offset="0.8353" style="stop-color:#E6E5E4"/>
			<stop  offset="1" style="stop-color:#DEDEDD"/>
		</linearGradient>
		<path id="XMLID_1250_" class="st2" d="M25.2,9.5C25.2,7,27.3,5,29.8,5c0,0,0,0,0.1,0h7.2L40,2.4h-9.7c-0.1,0-0.3,0-0.4,0
			c-0.1,0,0,0-0.1,0l0.4,0l-0.6,0c-4.1,0.2-7.3,3.4-7.3,7.3c0,2.1,0.9,4,2.4,5.3l2.1-1.9l0,0C25.7,12.2,25.2,10.9,25.2,9.5z"/>
	</g>
	<g id="XMLID_1247_">
		
			<linearGradient id="XMLID_5_" gradientUnits="userSpaceOnUse" x1="2.686913e-002" y1="-16374.5801" x2="17.5786" y2="-16374.5801" gradientTransform="matrix(1 0 0 -1 0 -16366)">
			<stop  offset="0" style="stop-color:#FFFFFF"/>
			<stop  offset="0.3606" style="stop-color:#F6F6F5"/>
			<stop  offset="0.8353" style="stop-color:#E6E5E4"/>
			<stop  offset="1" style="stop-color:#DEDEDD"/>
		</linearGradient>
		<path id="XMLID_1248_" class="st3" d="M14.8,7.8c0,2.5-2.1,4.4-4.6,4.5c0,0,0,0-0.1,0H2.9L0,14.9h9.7c0.1,0,0.3,0,0.4,0s0,0,0.1,0
			l-0.4,0l0.6,0c4.1-0.2,7.3-3.4,7.3-7.3c0-2.1-0.9-4-2.4-5.3l-2.1,1.9l0,0C14.3,5,14.8,6.3,14.8,7.8z"/>
	</g>
	<g id="XMLID_1162_">
		<g id="XMLID_1245_">
			
				<radialGradient id="XMLID_6_" cx="20.9159" cy="-16373.3223" r="0.8839" gradientTransform="matrix(1 0 0 -1 0 -16366)" gradientUnits="userSpaceOnUse">
				<stop  offset="5.618000e-003" style="stop-color:#BBBBC1"/>
				<stop  offset="0.2773" style="stop-color:#B7B6B6"/>
				<stop  offset="0.3539" style="stop-color:#B6B5B2"/>
				<stop  offset="0.4916" style="stop-color:#A8AAAA"/>
				<stop  offset="0.6742" style="stop-color:#92979B"/>
				<stop  offset="1" style="stop-color:#727A7F"/>
			</radialGradient>
			<polygon id="XMLID_1246_" class="st4" points="21.6,8.1 19.9,7.2 20.2,6.6 21.9,7.4 			"/>
		</g>
		<g id="XMLID_1243_">
			
				<radialGradient id="XMLID_7_" cx="18.7103" cy="-16374.04" r="0.9199" gradientTransform="matrix(1 0 0 -1 0 -16366)" gradientUnits="userSpaceOnUse">
				<stop  offset="5.618000e-003" style="stop-color:#BBBBC1"/>
				<stop  offset="0.2773" style="stop-color:#B7B6B6"/>
				<stop  offset="0.3539" style="stop-color:#B6B5B2"/>
				<stop  offset="0.4916" style="stop-color:#A8AAAA"/>
				<stop  offset="0.6742" style="stop-color:#92979B"/>
				<stop  offset="1" style="stop-color:#727A7F"/>
			</radialGradient>
			<rect id="XMLID_1244_" x="18.3" y="6.8" class="st5" width="0.7" height="2.5"/>
		</g>
		<g id="XMLID_1241_">
			
				<radialGradient id="XMLID_8_" cx="20.754" cy="-16375.6045" r="1.0833" gradientTransform="matrix(1 0 0 -1 0 -16366)" gradientUnits="userSpaceOnUse">
				<stop  offset="5.618000e-003" style="stop-color:#BBBBC1"/>
				<stop  offset="0.2773" style="stop-color:#B7B6B6"/>
				<stop  offset="0.3539" style="stop-color:#B6B5B2"/>
				<stop  offset="0.4916" style="stop-color:#A8AAAA"/>
				<stop  offset="0.6742" style="stop-color:#92979B"/>
				<stop  offset="1" style="stop-color:#727A7F"/>
			</radialGradient>
			<polygon id="XMLID_1242_" class="st6" points="19.9,10.6 19.6,9.9 21.6,8.7 22,9.3 			"/>
		</g>
		<g id="XMLID_1231_">
			<g id="XMLID_1238_">
				<circle id="XMLID_36_" class="st7" cx="18.2" cy="11.3" r="2.1"/>
			</g>
			<g id="XMLID_1235_">
				<circle id="XMLID_34_" class="st8" cx="18.2" cy="11.3" r="1.4"/>
			</g>
			<g id="XMLID_1232_">
				<circle id="XMLID_18_" class="st9" cx="18.2" cy="11.3" r="0.5"/>
			</g>
		</g>
		<g id="XMLID_1217_">
			<g id="XMLID_1228_">
				<circle id="XMLID_30_" class="st7" cx="23" cy="8.3" r="1.8"/>
			</g>
			<g id="XMLID_1225_">
				<circle id="XMLID_28_" class="st8" cx="23" cy="8.3" r="1.2"/>
			</g>
			<g id="XMLID_1219_">
				<circle id="XMLID_16_" class="st9" cx="23" cy="8.3" r="0.5"/>
			</g>
		</g>
		<g id="XMLID_1163_">
			<g id="XMLID_1174_">
				<circle id="XMLID_24_" class="st7" cx="19.1" cy="6.1" r="1.5"/>
			</g>
			<g id="XMLID_1167_">
				<circle id="XMLID_14_" class="st8" cx="19.1" cy="6.1" r="1"/>
			</g>
			<g id="XMLID_1164_">
				<circle id="XMLID_12_" class="st9" cx="19.1" cy="6.1" r="0.4"/>
			</g>
		</g>
	</g>
</g>
</svg>
