<?xml version="1.0" encoding="iso-8859-1"?>
<!-- Generator: Adobe Illustrator 19.0.0, SVG Export Plug-In . SVG Version: 6.00 Build 0)  -->
<svg version="1.1" id="Layer_1" xmlns="http://www.w3.org/2000/svg" xmlns:xlink="http://www.w3.org/1999/xlink" x="0px" y="0px"
	 viewBox="0 0 312.402 312.402" style="enable-background:new 0 0 312.402 312.402;" xml:space="preserve">
<g>
	<path style="fill:#5C6670;" d="M235.794,296.692c0,8.641-7.07,15.71-15.711,15.71H75.561c-8.641,0-15.71-7.069-15.71-15.71V15.71
		C59.851,7.069,66.92,0,75.561,0h144.522c8.641,0,15.711,7.069,15.711,15.71V296.692z"/>
	<path style="fill:#1E252B;" d="M252.55,296.692c0,8.641-7.068,15.71-15.709,15.71H92.318c-8.641,0-15.71-7.069-15.71-15.71V15.71
		c0-8.641,7.07-15.71,15.71-15.71H236.84c8.641,0,15.709,7.069,15.709,15.71L252.55,296.692L252.55,296.692z"/>
	<rect x="99.649" y="32.6" style="fill:#0071CE;" width="129.859" height="225.342"/>
	<rect x="59.851" y="25.694" style="fill:#C3C6C8;" width="16.758" height="6.905"/>
	<rect x="59.851" y="279.804" style="fill:#C3C6C8;" width="16.758" height="6.906"/>
	<path style="fill:#5C6670;" d="M183.018,20.816h-32.871c-1.934,0-3.5-1.567-3.5-3.5s1.566-3.5,3.5-3.5h32.871
		c1.933,0,3.5,1.567,3.5,3.5S184.949,20.816,183.018,20.816z"/>
	<circle style="fill:#5C6670;" cx="164.58" cy="283.568" r="13.522"/>
	<path style="fill:#FFFFFF;" d="M125.681,120.113L162.83,142.2c2.063,1.226,5.438,1.226,7.5,0l37.153-22.087
		c2.061-1.226,1.785-2.228-0.613-2.228h-80.579C123.894,117.886,123.618,118.887,125.681,120.113z M121.46,124.223
		c-1.968-1.17-3.575-0.253-3.575,2.035v45.949c0,0.369,0.063,0.723,0.153,1.063l32.037-32.035L121.46,124.223z M211.704,124.223
		l-28.617,17.012l32.035,32.035c0.095-0.341,0.155-0.695,0.155-1.063v-45.949C215.277,123.97,213.671,123.053,211.704,124.223z
		 M170.158,148.922c-1.967,1.169-5.186,1.169-7.152,0l-9.24-5.493l-32.783,32.783c0.339,0.091,0.692,0.156,1.064,0.156h89.072
		c0.37,0,0.722-0.064,1.064-0.156l-32.785-32.784L170.158,148.922z"/>
</g>
<g>
</g>
<g>
</g>
<g>
</g>
<g>
</g>
<g>
</g>
<g>
</g>
<g>
</g>
<g>
</g>
<g>
</g>
<g>
</g>
<g>
</g>
<g>
</g>
<g>
</g>
<g>
</g>
<g>
</g>
</svg>
